<svg width="239" height="12" viewBox="0 0 239 12" fill="none" xmlns="http://www.w3.org/2000/svg">
<path d="M5.64258 7.01367H2.33789L1.64648 9H0.105469L3.32812 0.46875H4.6582L7.88672 9H6.33984L5.64258 7.01367ZM2.75391 5.81836H5.22656L3.99023 2.2793L2.75391 5.81836ZM12.041 3.96094C11.8535 3.92969 11.6602 3.91406 11.4609 3.91406C10.8086 3.91406 10.3691 4.16406 10.1426 4.66406V9H8.71875V2.66016H10.0781L10.1133 3.36914C10.457 2.81836 10.9336 2.54297 11.543 2.54297C11.7461 2.54297 11.9141 2.57031 12.0469 2.625L12.041 3.96094ZM16.5527 9C16.4902 8.87891 16.4355 8.68164 16.3887 8.4082C15.9355 8.88086 15.3809 9.11719 14.7246 9.11719C14.0879 9.11719 13.5684 8.93555 13.166 8.57227C12.7637 8.20898 12.5625 7.75977 12.5625 7.22461C12.5625 6.54883 12.8125 6.03125 13.3125 5.67188C13.8164 5.30859 14.5352 5.12695 15.4688 5.12695H16.3418V4.71094C16.3418 4.38281 16.25 4.12109 16.0664 3.92578C15.8828 3.72656 15.6035 3.62695 15.2285 3.62695C14.9043 3.62695 14.6387 3.70898 14.4316 3.87305C14.2246 4.0332 14.1211 4.23828 14.1211 4.48828H12.6973C12.6973 4.14062 12.8125 3.81641 13.043 3.51562C13.2734 3.21094 13.5859 2.97266 13.9805 2.80078C14.3789 2.62891 14.8223 2.54297 15.3105 2.54297C16.0527 2.54297 16.6445 2.73047 17.0859 3.10547C17.5273 3.47656 17.7539 4 17.7656 4.67578V7.53516C17.7656 8.10547 17.8457 8.56055 18.0059 8.90039V9H16.5527ZM14.9883 7.97461C15.2695 7.97461 15.5332 7.90625 15.7793 7.76953C16.0293 7.63281 16.2168 7.44922 16.3418 7.21875V6.02344H15.5742C15.0469 6.02344 14.6504 6.11523 14.3848 6.29883C14.1191 6.48242 13.9863 6.74219 13.9863 7.07812C13.9863 7.35156 14.0762 7.57031 14.2559 7.73438C14.4395 7.89453 14.6836 7.97461 14.9883 7.97461ZM20.6602 3.35156C21.125 2.8125 21.7129 2.54297 22.4238 2.54297C23.7754 2.54297 24.4609 3.31445 24.4805 4.85742V9H23.0566V4.91016C23.0566 4.47266 22.9609 4.16406 22.7695 3.98438C22.582 3.80078 22.3047 3.70898 21.9375 3.70898C21.3672 3.70898 20.9414 3.96289 20.6602 4.4707V9H19.2363V0H20.6602V3.35156ZM27.9844 6.28125L27.3516 6.93164V9H25.9277V0H27.3516V5.19141L27.7969 4.63477L29.5488 2.66016H31.2598L28.9043 5.30273L31.5117 9H29.8652L27.9844 6.28125ZM35.9824 9C35.9199 8.87891 35.8652 8.68164 35.8184 8.4082C35.3652 8.88086 34.8105 9.11719 34.1543 9.11719C33.5176 9.11719 32.998 8.93555 32.5957 8.57227C32.1934 8.20898 31.9922 7.75977 31.9922 7.22461C31.9922 6.54883 32.2422 6.03125 32.7422 5.67188C33.2461 5.30859 33.9648 5.12695 34.8984 5.12695H35.7715V4.71094C35.7715 4.38281 35.6797 4.12109 35.4961 3.92578C35.3125 3.72656 35.0332 3.62695 34.6582 3.62695C34.334 3.62695 34.0684 3.70898 33.8613 3.87305C33.6543 4.0332 33.5508 4.23828 33.5508 4.48828H32.127C32.127 4.14062 32.2422 3.81641 32.4727 3.51562C32.7031 3.21094 33.0156 2.97266 33.4102 2.80078C33.8086 2.62891 34.252 2.54297 34.7402 2.54297C35.4824 2.54297 36.0742 2.73047 36.5156 3.10547C36.957 3.47656 37.1836 4 37.1953 4.67578V7.53516C37.1953 8.10547 37.2754 8.56055 37.4355 8.90039V9H35.9824ZM34.418 7.97461C34.6992 7.97461 34.9629 7.90625 35.209 7.76953C35.459 7.63281 35.6465 7.44922 35.7715 7.21875V6.02344H35.0039C34.4766 6.02344 34.0801 6.11523 33.8145 6.29883C33.5488 6.48242 33.416 6.74219 33.416 7.07812C33.416 7.35156 33.5059 7.57031 33.6855 7.73438C33.8691 7.89453 34.1133 7.97461 34.418 7.97461ZM40.0078 2.66016L40.0488 3.39258C40.5176 2.82617 41.1328 2.54297 41.8945 2.54297C43.2148 2.54297 43.8867 3.29883 43.9102 4.81055V9H42.4863V4.89258C42.4863 4.49023 42.3984 4.19336 42.2227 4.00195C42.0508 3.80664 41.7676 3.70898 41.373 3.70898C40.7988 3.70898 40.3711 3.96875 40.0898 4.48828V9H38.666V2.66016H40.0078ZM50.4141 6.28125L49.7812 6.93164V9H48.3574V0H49.7812V5.19141L50.2266 4.63477L51.9785 2.66016H53.6895L51.334 5.30273L53.9414 9H52.2949L50.4141 6.28125ZM58.4121 9C58.3496 8.87891 58.2949 8.68164 58.248 8.4082C57.7949 8.88086 57.2402 9.11719 56.584 9.11719C55.9473 9.11719 55.4277 8.93555 55.0254 8.57227C54.623 8.20898 54.4219 7.75977 54.4219 7.22461C54.4219 6.54883 54.6719 6.03125 55.1719 5.67188C55.6758 5.30859 56.3945 5.12695 57.3281 5.12695H58.2012V4.71094C58.2012 4.38281 58.1094 4.12109 57.9258 3.92578C57.7422 3.72656 57.4629 3.62695 57.0879 3.62695C56.7637 3.62695 56.498 3.70898 56.291 3.87305C56.084 4.0332 55.9805 4.23828 55.9805 4.48828H54.5566C54.5566 4.14062 54.6719 3.81641 54.9023 3.51562C55.1328 3.21094 55.4453 2.97266 55.8398 2.80078C56.2383 2.62891 56.6816 2.54297 57.1699 2.54297C57.9121 2.54297 58.5039 2.73047 58.9453 3.10547C59.3867 3.47656 59.6133 4 59.625 4.67578V7.53516C59.625 8.10547 59.7051 8.56055 59.8652 8.90039V9H58.4121ZM56.8477 7.97461C57.1289 7.97461 57.3926 7.90625 57.6387 7.76953C57.8887 7.63281 58.0762 7.44922 58.2012 7.21875V6.02344H57.4336C56.9062 6.02344 56.5098 6.11523 56.2441 6.29883C55.9785 6.48242 55.8457 6.74219 55.8457 7.07812C55.8457 7.35156 55.9355 7.57031 56.1152 7.73438C56.2988 7.89453 56.543 7.97461 56.8477 7.97461ZM62.4551 2.66016L62.4961 3.32227C62.9414 2.80273 63.5508 2.54297 64.3242 2.54297C65.1719 2.54297 65.752 2.86719 66.0645 3.51562C66.5254 2.86719 67.1738 2.54297 68.0098 2.54297C68.709 2.54297 69.2285 2.73633 69.5684 3.12305C69.9121 3.50977 70.0879 4.08008 70.0957 4.83398V9H68.6719V4.875C68.6719 4.47266 68.584 4.17773 68.4082 3.99023C68.2324 3.80273 67.9414 3.70898 67.5352 3.70898C67.2109 3.70898 66.9453 3.79688 66.7383 3.97266C66.5352 4.14453 66.3926 4.37109 66.3105 4.65234L66.3164 9H64.8926V4.82812C64.873 4.08203 64.4922 3.70898 63.75 3.70898C63.1797 3.70898 62.7754 3.94141 62.5371 4.40625V9H61.1133V2.66016H62.4551ZM74.3496 9.11719C73.4473 9.11719 72.7148 8.83398 72.1523 8.26758C71.5938 7.69727 71.3145 6.93945 71.3145 5.99414V5.81836C71.3145 5.18555 71.4355 4.62109 71.6777 4.125C71.9238 3.625 72.2676 3.23633 72.709 2.95898C73.1504 2.68164 73.6426 2.54297 74.1855 2.54297C75.0488 2.54297 75.7148 2.81836 76.1836 3.36914C76.6562 3.91992 76.8926 4.69922 76.8926 5.70703V6.28125H72.75C72.793 6.80469 72.9668 7.21875 73.2715 7.52344C73.5801 7.82812 73.9668 7.98047 74.4316 7.98047C75.084 7.98047 75.6152 7.7168 76.0254 7.18945L76.793 7.92188C76.5391 8.30078 76.1992 8.5957 75.7734 8.80664C75.3516 9.01367 74.877 9.11719 74.3496 9.11719ZM74.1797 3.68555C73.7891 3.68555 73.4727 3.82227 73.2305 4.0957C72.9922 4.36914 72.8398 4.75 72.7734 5.23828H75.4863V5.13281C75.4551 4.65625 75.3281 4.29688 75.1055 4.05469C74.8828 3.80859 74.5742 3.68555 74.1797 3.68555ZM81.3223 3.96094C81.1348 3.92969 80.9414 3.91406 80.7422 3.91406C80.0898 3.91406 79.6504 4.16406 79.4238 4.66406V9H78V2.66016H79.3594L79.3945 3.36914C79.7383 2.81836 80.2148 2.54297 80.8242 2.54297C81.0273 2.54297 81.1953 2.57031 81.3281 2.625L81.3223 3.96094ZM85.834 9C85.7715 8.87891 85.7168 8.68164 85.6699 8.4082C85.2168 8.88086 84.6621 9.11719 84.0059 9.11719C83.3691 9.11719 82.8496 8.93555 82.4473 8.57227C82.0449 8.20898 81.8438 7.75977 81.8438 7.22461C81.8438 6.54883 82.0938 6.03125 82.5938 5.67188C83.0977 5.30859 83.8164 5.12695 84.75 5.12695H85.623V4.71094C85.623 4.38281 85.5312 4.12109 85.3477 3.92578C85.1641 3.72656 84.8848 3.62695 84.5098 3.62695C84.1855 3.62695 83.9199 3.70898 83.7129 3.87305C83.5059 4.0332 83.4023 4.23828 83.4023 4.48828H81.9785C81.9785 4.14062 82.0938 3.81641 82.3242 3.51562C82.5547 3.21094 82.8672 2.97266 83.2617 2.80078C83.6602 2.62891 84.1035 2.54297 84.5918 2.54297C85.334 2.54297 85.9258 2.73047 86.3672 3.10547C86.8086 3.47656 87.0352 4 87.0469 4.67578V7.53516C87.0469 8.10547 87.127 8.56055 87.2871 8.90039V9H85.834ZM84.2695 7.97461C84.5508 7.97461 84.8145 7.90625 85.0605 7.76953C85.3105 7.63281 85.498 7.44922 85.623 7.21875V6.02344H84.8555C84.3281 6.02344 83.9316 6.11523 83.666 6.29883C83.4004 6.48242 83.2676 6.74219 83.2676 7.07812C83.2676 7.35156 83.3574 7.57031 83.5371 7.73438C83.7207 7.89453 83.9648 7.97461 84.2695 7.97461ZM97.0781 5.89453C97.0781 6.875 96.8555 7.6582 96.4102 8.24414C95.9648 8.82617 95.3672 9.11719 94.6172 9.11719C93.9219 9.11719 93.3652 8.88867 92.9473 8.43164V11.4375H91.5234V2.66016H92.8359L92.8945 3.30469C93.3125 2.79688 93.8809 2.54297 94.5996 2.54297C95.373 2.54297 95.9785 2.83203 96.416 3.41016C96.8574 3.98438 97.0781 4.7832 97.0781 5.80664V5.89453ZM95.6602 5.77148C95.6602 5.13867 95.5332 4.63672 95.2793 4.26562C95.0293 3.89453 94.6699 3.70898 94.2012 3.70898C93.6191 3.70898 93.2012 3.94922 92.9473 4.42969V7.24219C93.2051 7.73438 93.627 7.98047 94.2129 7.98047C94.666 7.98047 95.0195 7.79883 95.2734 7.43555C95.5312 7.06836 95.6602 6.51367 95.6602 5.77148ZM102.076 9C102.014 8.87891 101.959 8.68164 101.912 8.4082C101.459 8.88086 100.904 9.11719 100.248 9.11719C99.6113 9.11719 99.0918 8.93555 98.6895 8.57227C98.2871 8.20898 98.0859 7.75977 98.0859 7.22461C98.0859 6.54883 98.3359 6.03125 98.8359 5.67188C99.3398 5.30859 100.059 5.12695 100.992 5.12695H101.865V4.71094C101.865 4.38281 101.773 4.12109 101.59 3.92578C101.406 3.72656 101.127 3.62695 100.752 3.62695C100.428 3.62695 100.162 3.70898 99.9551 3.87305C99.748 4.0332 99.6445 4.23828 99.6445 4.48828H98.2207C98.2207 4.14062 98.3359 3.81641 98.5664 3.51562C98.7969 3.21094 99.1094 2.97266 99.5039 2.80078C99.9023 2.62891 100.346 2.54297 100.834 2.54297C101.576 2.54297 102.168 2.73047 102.609 3.10547C103.051 3.47656 103.277 4 103.289 4.67578V7.53516C103.289 8.10547 103.369 8.56055 103.529 8.90039V9H102.076ZM100.512 7.97461C100.793 7.97461 101.057 7.90625 101.303 7.76953C101.553 7.63281 101.74 7.44922 101.865 7.21875V6.02344H101.098C100.57 6.02344 100.174 6.11523 99.9082 6.29883C99.6426 6.48242 99.5098 6.74219 99.5098 7.07812C99.5098 7.35156 99.5996 7.57031 99.7793 7.73438C99.9629 7.89453 100.207 7.97461 100.512 7.97461ZM104.514 5.7832C104.514 4.80664 104.74 4.02344 105.193 3.43359C105.646 2.83984 106.254 2.54297 107.016 2.54297C107.688 2.54297 108.23 2.77734 108.645 3.24609V0H110.068V9H108.779L108.709 8.34375C108.283 8.85938 107.715 9.11719 107.004 9.11719C106.262 9.11719 105.66 8.81836 105.199 8.2207C104.742 7.62305 104.514 6.81055 104.514 5.7832ZM105.938 5.90625C105.938 6.55078 106.061 7.05469 106.307 7.41797C106.557 7.77734 106.91 7.95703 107.367 7.95703C107.949 7.95703 108.375 7.69727 108.645 7.17773V4.4707C108.383 3.96289 107.961 3.70898 107.379 3.70898C106.918 3.70898 106.562 3.89258 106.312 4.25977C106.062 4.62305 105.938 5.17188 105.938 5.90625ZM115.342 9C115.279 8.87891 115.225 8.68164 115.178 8.4082C114.725 8.88086 114.17 9.11719 113.514 9.11719C112.877 9.11719 112.357 8.93555 111.955 8.57227C111.553 8.20898 111.352 7.75977 111.352 7.22461C111.352 6.54883 111.602 6.03125 112.102 5.67188C112.605 5.30859 113.324 5.12695 114.258 5.12695H115.131V4.71094C115.131 4.38281 115.039 4.12109 114.855 3.92578C114.672 3.72656 114.393 3.62695 114.018 3.62695C113.693 3.62695 113.428 3.70898 113.221 3.87305C113.014 4.0332 112.91 4.23828 112.91 4.48828H111.486C111.486 4.14062 111.602 3.81641 111.832 3.51562C112.062 3.21094 112.375 2.97266 112.77 2.80078C113.168 2.62891 113.611 2.54297 114.1 2.54297C114.842 2.54297 115.434 2.73047 115.875 3.10547C116.316 3.47656 116.543 4 116.555 4.67578V7.53516C116.555 8.10547 116.635 8.56055 116.795 8.90039V9H115.342ZM113.777 7.97461C114.059 7.97461 114.322 7.90625 114.568 7.76953C114.818 7.63281 115.006 7.44922 115.131 7.21875V6.02344H114.363C113.836 6.02344 113.439 6.11523 113.174 6.29883C112.908 6.48242 112.775 6.74219 112.775 7.07812C112.775 7.35156 112.865 7.57031 113.045 7.73438C113.229 7.89453 113.473 7.97461 113.777 7.97461ZM126.598 5.89453C126.598 6.87891 126.377 7.66211 125.936 8.24414C125.498 8.82617 124.895 9.11719 124.125 9.11719C123.383 9.11719 122.805 8.84961 122.391 8.31445L122.32 9H121.031V0H122.455V3.26953C122.865 2.78516 123.418 2.54297 124.113 2.54297C124.887 2.54297 125.494 2.83008 125.936 3.4043C126.377 3.97852 126.598 4.78125 126.598 5.8125V5.89453ZM125.174 5.77148C125.174 5.08398 125.053 4.56836 124.811 4.22461C124.568 3.88086 124.217 3.70898 123.756 3.70898C123.139 3.70898 122.705 3.97852 122.455 4.51758V7.13086C122.709 7.68164 123.146 7.95703 123.768 7.95703C124.213 7.95703 124.557 7.79102 124.799 7.45898C125.041 7.12695 125.166 6.625 125.174 5.95312V5.77148ZM131.584 9C131.521 8.87891 131.467 8.68164 131.42 8.4082C130.967 8.88086 130.412 9.11719 129.756 9.11719C129.119 9.11719 128.6 8.93555 128.197 8.57227C127.795 8.20898 127.594 7.75977 127.594 7.22461C127.594 6.54883 127.844 6.03125 128.344 5.67188C128.848 5.30859 129.566 5.12695 130.5 5.12695H131.373V4.71094C131.373 4.38281 131.281 4.12109 131.098 3.92578C130.914 3.72656 130.635 3.62695 130.26 3.62695C129.936 3.62695 129.67 3.70898 129.463 3.87305C129.256 4.0332 129.152 4.23828 129.152 4.48828H127.729C127.729 4.14062 127.844 3.81641 128.074 3.51562C128.305 3.21094 128.617 2.97266 129.012 2.80078C129.41 2.62891 129.854 2.54297 130.342 2.54297C131.084 2.54297 131.676 2.73047 132.117 3.10547C132.559 3.47656 132.785 4 132.797 4.67578V7.53516C132.797 8.10547 132.877 8.56055 133.037 8.90039V9H131.584ZM130.02 7.97461C130.301 7.97461 130.564 7.90625 130.811 7.76953C131.061 7.63281 131.248 7.44922 131.373 7.21875V6.02344H130.605C130.078 6.02344 129.682 6.11523 129.416 6.29883C129.15 6.48242 129.018 6.74219 129.018 7.07812C129.018 7.35156 129.107 7.57031 129.287 7.73438C129.471 7.89453 129.715 7.97461 130.02 7.97461ZM137.607 3.96094C137.42 3.92969 137.227 3.91406 137.027 3.91406C136.375 3.91406 135.936 4.16406 135.709 4.66406V9H134.285V2.66016H135.645L135.68 3.36914C136.023 2.81836 136.5 2.54297 137.109 2.54297C137.312 2.54297 137.48 2.57031 137.613 2.625L137.607 3.96094ZM140.994 7.98047C141.35 7.98047 141.645 7.87695 141.879 7.66992C142.113 7.46289 142.238 7.20703 142.254 6.90234H143.596C143.58 7.29688 143.457 7.66602 143.227 8.00977C142.996 8.34961 142.684 8.61914 142.289 8.81836C141.895 9.01758 141.469 9.11719 141.012 9.11719C140.125 9.11719 139.422 8.83008 138.902 8.25586C138.383 7.68164 138.123 6.88867 138.123 5.87695V5.73047C138.123 4.76562 138.381 3.99414 138.896 3.41602C139.412 2.83398 140.115 2.54297 141.006 2.54297C141.76 2.54297 142.373 2.76367 142.846 3.20508C143.322 3.64258 143.572 4.21875 143.596 4.93359H142.254C142.238 4.57031 142.113 4.27148 141.879 4.03711C141.648 3.80273 141.354 3.68555 140.994 3.68555C140.533 3.68555 140.178 3.85352 139.928 4.18945C139.678 4.52148 139.551 5.02734 139.547 5.70703V5.93555C139.547 6.62305 139.67 7.13672 139.916 7.47656C140.166 7.8125 140.525 7.98047 140.994 7.98047ZM144.404 5.77148C144.404 5.15039 144.527 4.5918 144.773 4.0957C145.02 3.5957 145.365 3.21289 145.811 2.94727C146.256 2.67773 146.768 2.54297 147.346 2.54297C148.201 2.54297 148.895 2.81836 149.426 3.36914C149.961 3.91992 150.25 4.65039 150.293 5.56055L150.299 5.89453C150.299 6.51953 150.178 7.07812 149.936 7.57031C149.697 8.0625 149.354 8.44336 148.904 8.71289C148.459 8.98242 147.943 9.11719 147.357 9.11719C146.463 9.11719 145.746 8.82031 145.207 8.22656C144.672 7.62891 144.404 6.83398 144.404 5.8418V5.77148ZM145.828 5.89453C145.828 6.54688 145.963 7.05859 146.232 7.42969C146.502 7.79688 146.877 7.98047 147.357 7.98047C147.838 7.98047 148.211 7.79297 148.477 7.41797C148.746 7.04297 148.881 6.49414 148.881 5.77148C148.881 5.13086 148.742 4.62305 148.465 4.24805C148.191 3.87305 147.818 3.68555 147.346 3.68555C146.881 3.68555 146.512 3.87109 146.238 4.24219C145.965 4.60938 145.828 5.16016 145.828 5.89453ZM151.236 5.7832C151.236 4.80664 151.463 4.02344 151.916 3.43359C152.369 2.83984 152.977 2.54297 153.738 2.54297C154.41 2.54297 154.953 2.77734 155.367 3.24609V0H156.791V9H155.502L155.432 8.34375C155.006 8.85938 154.438 9.11719 153.727 9.11719C152.984 9.11719 152.383 8.81836 151.922 8.2207C151.465 7.62305 151.236 6.81055 151.236 5.7832ZM152.66 5.90625C152.66 6.55078 152.783 7.05469 153.029 7.41797C153.279 7.77734 153.633 7.95703 154.09 7.95703C154.672 7.95703 155.098 7.69727 155.367 7.17773V4.4707C155.105 3.96289 154.684 3.70898 154.102 3.70898C153.641 3.70898 153.285 3.89258 153.035 4.25977C152.785 4.62305 152.66 5.17188 152.66 5.90625ZM161.068 9.11719C160.166 9.11719 159.434 8.83398 158.871 8.26758C158.312 7.69727 158.033 6.93945 158.033 5.99414V5.81836C158.033 5.18555 158.154 4.62109 158.396 4.125C158.643 3.625 158.986 3.23633 159.428 2.95898C159.869 2.68164 160.361 2.54297 160.904 2.54297C161.768 2.54297 162.434 2.81836 162.902 3.36914C163.375 3.91992 163.611 4.69922 163.611 5.70703V6.28125H159.469C159.512 6.80469 159.686 7.21875 159.99 7.52344C160.299 7.82812 160.686 7.98047 161.15 7.98047C161.803 7.98047 162.334 7.7168 162.744 7.18945L163.512 7.92188C163.258 8.30078 162.918 8.5957 162.492 8.80664C162.07 9.01367 161.596 9.11719 161.068 9.11719ZM160.898 3.68555C160.508 3.68555 160.191 3.82227 159.949 4.0957C159.711 4.36914 159.559 4.75 159.492 5.23828H162.205V5.13281C162.174 4.65625 162.047 4.29688 161.824 4.05469C161.602 3.80859 161.293 3.68555 160.898 3.68555ZM169.928 6.96094L171.217 2.66016H172.734L170.215 9.96094C169.828 11.0273 169.172 11.5605 168.246 11.5605C168.039 11.5605 167.811 11.5254 167.561 11.4551V10.3535L167.83 10.3711C168.189 10.3711 168.459 10.3047 168.639 10.1719C168.822 10.043 168.967 9.82422 169.072 9.51562L169.277 8.9707L167.051 2.66016H168.586L169.928 6.96094ZM177.252 9C177.189 8.87891 177.135 8.68164 177.088 8.4082C176.635 8.88086 176.08 9.11719 175.424 9.11719C174.787 9.11719 174.268 8.93555 173.865 8.57227C173.463 8.20898 173.262 7.75977 173.262 7.22461C173.262 6.54883 173.512 6.03125 174.012 5.67188C174.516 5.30859 175.234 5.12695 176.168 5.12695H177.041V4.71094C177.041 4.38281 176.949 4.12109 176.766 3.92578C176.582 3.72656 176.303 3.62695 175.928 3.62695C175.604 3.62695 175.338 3.70898 175.131 3.87305C174.924 4.0332 174.82 4.23828 174.82 4.48828H173.396C173.396 4.14062 173.512 3.81641 173.742 3.51562C173.973 3.21094 174.285 2.97266 174.68 2.80078C175.078 2.62891 175.521 2.54297 176.01 2.54297C176.752 2.54297 177.344 2.73047 177.785 3.10547C178.227 3.47656 178.453 4 178.465 4.67578V7.53516C178.465 8.10547 178.545 8.56055 178.705 8.90039V9H177.252ZM175.688 7.97461C175.969 7.97461 176.232 7.90625 176.479 7.76953C176.729 7.63281 176.916 7.44922 177.041 7.21875V6.02344H176.273C175.746 6.02344 175.35 6.11523 175.084 6.29883C174.818 6.48242 174.686 6.74219 174.686 7.07812C174.686 7.35156 174.775 7.57031 174.955 7.73438C175.139 7.89453 175.383 7.97461 175.688 7.97461ZM181.277 2.66016L181.318 3.39258C181.787 2.82617 182.402 2.54297 183.164 2.54297C184.484 2.54297 185.156 3.29883 185.18 4.81055V9H183.756V4.89258C183.756 4.49023 183.668 4.19336 183.492 4.00195C183.32 3.80664 183.037 3.70898 182.643 3.70898C182.068 3.70898 181.641 3.96875 181.359 4.48828V9H179.936V2.66016H181.277ZM186.387 5.7832C186.387 4.79883 186.617 4.01367 187.078 3.42773C187.543 2.83789 188.158 2.54297 188.924 2.54297C189.646 2.54297 190.215 2.79492 190.629 3.29883L190.693 2.66016H191.977V8.80664C191.977 9.63867 191.717 10.2949 191.197 10.7754C190.682 11.2559 189.984 11.4961 189.105 11.4961C188.641 11.4961 188.186 11.3984 187.74 11.2031C187.299 11.0117 186.963 10.7598 186.732 10.4473L187.406 9.5918C187.844 10.1113 188.383 10.3711 189.023 10.3711C189.496 10.3711 189.869 10.2422 190.143 9.98438C190.416 9.73047 190.553 9.35547 190.553 8.85938V8.43164C190.143 8.88867 189.596 9.11719 188.912 9.11719C188.17 9.11719 187.562 8.82227 187.09 8.23242C186.621 7.64258 186.387 6.82617 186.387 5.7832ZM187.805 5.90625C187.805 6.54297 187.934 7.04492 188.191 7.41211C188.453 7.77539 188.814 7.95703 189.275 7.95703C189.85 7.95703 190.275 7.71094 190.553 7.21875V4.42969C190.283 3.94922 189.861 3.70898 189.287 3.70898C188.818 3.70898 188.453 3.89453 188.191 4.26562C187.934 4.63672 187.805 5.18359 187.805 5.90625ZM198.217 1.11914V2.66016H199.336V3.71484H198.217V7.25391C198.217 7.49609 198.264 7.67188 198.357 7.78125C198.455 7.88672 198.627 7.93945 198.873 7.93945C199.037 7.93945 199.203 7.91992 199.371 7.88086V8.98242C199.047 9.07227 198.734 9.11719 198.434 9.11719C197.34 9.11719 196.793 8.51367 196.793 7.30664V3.71484H195.75V2.66016H196.793V1.11914H198.217ZM203.221 9.11719C202.318 9.11719 201.586 8.83398 201.023 8.26758C200.465 7.69727 200.186 6.93945 200.186 5.99414V5.81836C200.186 5.18555 200.307 4.62109 200.549 4.125C200.795 3.625 201.139 3.23633 201.58 2.95898C202.021 2.68164 202.514 2.54297 203.057 2.54297C203.92 2.54297 204.586 2.81836 205.055 3.36914C205.527 3.91992 205.764 4.69922 205.764 5.70703V6.28125H201.621C201.664 6.80469 201.838 7.21875 202.143 7.52344C202.451 7.82812 202.838 7.98047 203.303 7.98047C203.955 7.98047 204.486 7.7168 204.896 7.18945L205.664 7.92188C205.41 8.30078 205.07 8.5957 204.645 8.80664C204.223 9.01367 203.748 9.11719 203.221 9.11719ZM203.051 3.68555C202.66 3.68555 202.344 3.82227 202.102 4.0957C201.863 4.36914 201.711 4.75 201.645 5.23828H204.357V5.13281C204.326 4.65625 204.199 4.29688 203.977 4.05469C203.754 3.80859 203.445 3.68555 203.051 3.68555ZM210.193 3.96094C210.006 3.92969 209.812 3.91406 209.613 3.91406C208.961 3.91406 208.521 4.16406 208.295 4.66406V9H206.871V2.66016H208.23L208.266 3.36914C208.609 2.81836 209.086 2.54297 209.695 2.54297C209.898 2.54297 210.066 2.57031 210.199 2.625L210.193 3.96094ZM214.646 7.27734C214.646 7.02344 214.541 6.83008 214.33 6.69727C214.123 6.56445 213.777 6.44727 213.293 6.3457C212.809 6.24414 212.404 6.11523 212.08 5.95898C211.369 5.61523 211.014 5.11719 211.014 4.46484C211.014 3.91797 211.244 3.46094 211.705 3.09375C212.166 2.72656 212.752 2.54297 213.463 2.54297C214.221 2.54297 214.832 2.73047 215.297 3.10547C215.766 3.48047 216 3.9668 216 4.56445H214.576C214.576 4.29102 214.475 4.06445 214.271 3.88477C214.068 3.70117 213.799 3.60938 213.463 3.60938C213.15 3.60938 212.895 3.68164 212.695 3.82617C212.5 3.9707 212.402 4.16406 212.402 4.40625C212.402 4.625 212.494 4.79492 212.678 4.91602C212.861 5.03711 213.232 5.16016 213.791 5.28516C214.35 5.40625 214.787 5.55273 215.104 5.72461C215.424 5.89258 215.66 6.0957 215.812 6.33398C215.969 6.57227 216.047 6.86133 216.047 7.20117C216.047 7.77148 215.811 8.23438 215.338 8.58984C214.865 8.94141 214.246 9.11719 213.48 9.11719C212.961 9.11719 212.498 9.02344 212.092 8.83594C211.686 8.64844 211.369 8.39062 211.143 8.0625C210.916 7.73438 210.803 7.38086 210.803 7.00195H212.186C212.205 7.33789 212.332 7.59766 212.566 7.78125C212.801 7.96094 213.111 8.05078 213.498 8.05078C213.873 8.05078 214.158 7.98047 214.354 7.83984C214.549 7.69531 214.646 7.50781 214.646 7.27734ZM220.084 9.11719C219.182 9.11719 218.449 8.83398 217.887 8.26758C217.328 7.69727 217.049 6.93945 217.049 5.99414V5.81836C217.049 5.18555 217.17 4.62109 217.412 4.125C217.658 3.625 218.002 3.23633 218.443 2.95898C218.885 2.68164 219.377 2.54297 219.92 2.54297C220.783 2.54297 221.449 2.81836 221.918 3.36914C222.391 3.91992 222.627 4.69922 222.627 5.70703V6.28125H218.484C218.527 6.80469 218.701 7.21875 219.006 7.52344C219.314 7.82812 219.701 7.98047 220.166 7.98047C220.818 7.98047 221.35 7.7168 221.76 7.18945L222.527 7.92188C222.273 8.30078 221.934 8.5957 221.508 8.80664C221.086 9.01367 220.611 9.11719 220.084 9.11719ZM219.914 3.68555C219.523 3.68555 219.207 3.82227 218.965 4.0957C218.727 4.36914 218.574 4.75 218.508 5.23828H221.221V5.13281C221.189 4.65625 221.062 4.29688 220.84 4.05469C220.617 3.80859 220.309 3.68555 219.914 3.68555ZM223.471 5.7832C223.471 4.80664 223.697 4.02344 224.15 3.43359C224.604 2.83984 225.211 2.54297 225.973 2.54297C226.645 2.54297 227.188 2.77734 227.602 3.24609V0H229.025V9H227.736L227.666 8.34375C227.24 8.85938 226.672 9.11719 225.961 9.11719C225.219 9.11719 224.617 8.81836 224.156 8.2207C223.699 7.62305 223.471 6.81055 223.471 5.7832ZM224.895 5.90625C224.895 6.55078 225.018 7.05469 225.264 7.41797C225.514 7.77734 225.867 7.95703 226.324 7.95703C226.906 7.95703 227.332 7.69727 227.602 7.17773V4.4707C227.34 3.96289 226.918 3.70898 226.336 3.70898C225.875 3.70898 225.52 3.89258 225.27 4.25977C225.02 4.62305 224.895 5.17188 224.895 5.90625ZM232.025 9H230.602V2.66016H232.025V9ZM230.514 1.01367C230.514 0.794922 230.582 0.613281 230.719 0.46875C230.859 0.324219 231.059 0.251953 231.316 0.251953C231.574 0.251953 231.773 0.324219 231.914 0.46875C232.055 0.613281 232.125 0.794922 232.125 1.01367C232.125 1.22852 232.055 1.4082 231.914 1.55273C231.773 1.69336 231.574 1.76367 231.316 1.76367C231.059 1.76367 230.859 1.69336 230.719 1.55273C230.582 1.4082 230.514 1.22852 230.514 1.01367ZM237.369 9C237.307 8.87891 237.252 8.68164 237.205 8.4082C236.752 8.88086 236.197 9.11719 235.541 9.11719C234.904 9.11719 234.385 8.93555 233.982 8.57227C233.58 8.20898 233.379 7.75977 233.379 7.22461C233.379 6.54883 233.629 6.03125 234.129 5.67188C234.633 5.30859 235.352 5.12695 236.285 5.12695H237.158V4.71094C237.158 4.38281 237.066 4.12109 236.883 3.92578C236.699 3.72656 236.42 3.62695 236.045 3.62695C235.721 3.62695 235.455 3.70898 235.248 3.87305C235.041 4.0332 234.938 4.23828 234.938 4.48828H233.514C233.514 4.14062 233.629 3.81641 233.859 3.51562C234.09 3.21094 234.402 2.97266 234.797 2.80078C235.195 2.62891 235.639 2.54297 236.127 2.54297C236.869 2.54297 237.461 2.73047 237.902 3.10547C238.344 3.47656 238.57 4 238.582 4.67578V7.53516C238.582 8.10547 238.662 8.56055 238.822 8.90039V9H237.369ZM235.805 7.97461C236.086 7.97461 236.35 7.90625 236.596 7.76953C236.846 7.63281 237.033 7.44922 237.158 7.21875V6.02344H236.391C235.863 6.02344 235.467 6.11523 235.201 6.29883C234.936 6.48242 234.803 6.74219 234.803 7.07812C234.803 7.35156 234.893 7.57031 235.072 7.73438C235.256 7.89453 235.5 7.97461 235.805 7.97461Z" fill="white"/>
</svg>
